PathFileType	4	(X/Y/Z)	Patient4_TMGait_0pt2_03_left_05.trc.trc
DataRate	CameraRate	NumFrames	NumMarkers	Units	OrigDataRate	OrigDataStartFrame	OrigNumFrames
43.887147335423	43.887147335423	6	33	mm	43.887147335423	89	       141
Frame#	Time	Sacral			L.Shoulder			Chest			R.Shoulder			Neck			R.ASIS			L.ASIS			R.Thigh.Superior			R.Thigh.Lateral			R.Thigh.Inferior			R.Patella			L.Thigh.Superior			L.Thigh.Lateral			L.Thigh.Inferior			L.Patella			L.Shank.Superior			L.Shank.Lateral			L.Shank.Inferior			R.Shank.Superior			R.Shank.Lateral			R.Shank.Inferior			R.Heel			R.Midfoot.Superior			R.Midfoot.Lateral			R.Toe			L.Heel			L.Midfoot.Lateral			L.Midfoot.Superior			L.Toe			L.Elbow			L.Wrist			R.Elbow			R.Wrist			
		X1	Y1	Z1	X2	Y2	Z2	X3	Y3	Z3	X4	Y4	Z4	X5	Y5	Z5	X6	Y6	Z6	X7	Y7	Z7	X8	Y8	Z8	X9	Y9	Z9	X10	Y10	Z10	X11	Y11	Z11	X12	Y12	Z12	X13	Y13	Z13	X14	Y14	Z14	X15	Y15	Z15	X16	Y16	Z16	X17	Y17	Z17	X18	Y18	Z18	X19	Y19	Z19	X20	Y20	Z20	X21	Y21	Z21	X22	Y22	Z22	X23	Y23	Z23	X24	Y24	Z24	X25	Y25	Z25	X26	Y26	Z26	X27	Y27	Z27	X28	Y28	Z28	X29	Y29	Z29	X30	Y30	Z30	X31	Y31	Z31	X32	Y32	Z32	X33	Y33	Z33	

89	11.385142857143	871.211315526105	1013.618352306716	484.088987471619	1093.930866835819	1429.133479687737	315.566996555945	1168.508404083271	1357.458146463665	489.442511116617	1071.188228679844	1443.324565179113	647.655447866253	1062.372574934323	1496.078945898489	466.478617795546	1094.440921070833	939.473936573948	611.476779285244	1090.804853911925	963.518121788118	335.129881758334	1144.336448296791	745.092792247640	566.689361033969	1072.621139576235	631.998312323331	629.020829463100	1144.832379451349	585.465411398094	541.267410894307	1149.507799091379	499.385337112513	545.132830192263	1110.756452905352	743.390099037456	345.569291634570	1010.158782058984	638.165423947945	274.695772810676	1091.195751124405	549.332539707953	326.033492402003	1085.256588340612	474.130688966710	324.928243643836	1035.855526746257	412.585797465207	317.497890444341	914.735893421476	331.464792057445	263.635225861656	939.047727356899	203.043115239181	320.295855476478	1128.246659728103	408.188854470906	554.091717924480	1070.843868955476	301.205972675776	625.059197950089	1107.754416445401	208.522758502619	555.840873338221	976.140651874734	42.189431030110	548.912477174163	1150.377193318572	98.220812937646	553.627926649559	1071.948945500593	36.711339791743	606.816385253883	1273.919947093166	49.794408292689	558.507428613970	779.048661200792	73.899265722388	355.324689506260	849.442430423990	54.523957125824	275.141638997579	943.023887554464	102.047252499766	298.086380650877	1058.656930561335	34.077367600877	268.624339818681	1213.718742714043	1121.251417632052	169.289870268187	1473.113133830832	1089.495492956476	182.430533041653	924.179751347678	1133.768974623433	769.362762486776	940.023728032219	870.715981613023	768.367518766745	
90	11.407928571429	872.189591001365	1013.345180118591	492.594964423737	1089.976009677450	1429.408770482312	319.925025145274	1168.415070074314	1357.932880858977	492.198082373669	1074.223838707720	1443.299288203638	652.607819146565	1061.669009133526	1496.374245660183	471.548296535605	1097.653229544704	939.449577361222	615.705341342828	1089.398434609763	964.140838223874	339.597817730690	1145.900603918326	744.512082998956	570.072160618161	1073.945767592742	631.627430734278	632.808824068034	1144.942537030469	585.025331972163	544.312082507866	1148.954498068636	498.625569327808	547.766897998905	1115.600084875280	746.758553326006	348.654936102313	1018.531462628762	639.257236744702	277.860417595376	1103.158363554735	551.961172763284	327.785006185332	1098.393486668117	474.808859032760	325.359434176363	1045.763257800970	413.899554261841	318.883494771014	921.255384571160	338.798801296512	265.408921118897	940.254029765808	209.762179799808	321.220010198105	1126.944487231707	407.398320779140	556.209860009975	1068.936734516919	300.360387149953	626.677869623591	1104.611352411341	207.916123698958	556.647124534292	971.558824008793	42.179420548367	549.005380546084	1145.981091720603	98.139872371792	553.842122737493	1067.369631871195	36.685244303610	606.920675456888	1269.404515526514	49.465054734781	558.559704583639	775.315471728898	89.450017148466	355.824861087428	844.209690435697	65.612779416137	275.973174682056	939.773814547105	107.962814346944	298.589320963580	1050.459514663500	34.188178164076	270.052759793461	1198.339716793829	1114.053091903675	175.927709320619	1455.253208056096	1064.773805835431	187.157236408468	937.936203630441	1129.524841937685	778.789145721137	964.859453316069	867.736505361064	780.274552773430	
91	11.430714285714	873.159239605022	1012.769584339455	500.488482051052	1085.546903990031	1429.657751752951	324.080602512810	1167.781002353203	1358.490095309943	494.737101944817	1076.496853417987	1443.133772042811	657.297819270222	1060.352134217681	1496.586153739563	476.442108755733	1100.747353416021	939.453677792889	619.668685587548	1088.217545030191	964.665529349522	343.918984175252	1147.609963209703	743.923033701475	573.306046192669	1075.464248403084	631.163013118698	636.354741737190	1145.388710109448	584.521668540839	547.206654394876	1148.814528058368	497.771915378702	550.284357355028	1121.469605509550	750.426075226921	352.085183191062	1028.817266573028	640.425513450266	280.959722688667	1116.989585856808	555.028410272340	329.988522825211	1113.355134942393	475.722337458792	326.125123647083	1057.145438480939	415.446486557640	320.471740938797	929.086896837491	347.572133901215	267.400100050934	941.455584541491	218.243101839516	322.567206362488	1125.904992992052	406.546317722870	558.230755997379	1067.141724980650	299.563438908015	628.251015563951	1101.538584082978	207.301343357310	557.444078042998	966.959085479776	42.168938030208	549.116666943031	1141.607902092286	98.059617919122	554.050768081849	1062.782084225222	36.655576575801	607.025760348535	1264.876129053786	49.107111209861	558.573054220120	771.117833303822	108.828470385868	356.919981281711	837.967572005609	80.068091315172	277.352317279015	935.547190900584	116.101924947841	299.644171131381	1040.090022232253	35.459955154564	271.925320893450	1181.528321265918	1107.084244722647	182.523369211689	1434.081327893391	1038.597557271409	191.827704812413	952.429678523905	1124.852763340328	787.508610397659	992.089866281483	865.143120439530	791.028890614615	
92	11.453500000000	874.131609515604	1011.929848712731	507.669091130495	1080.816256452092	1429.866734716072	327.996380676348	1166.675787581129	1359.131898367038	497.081317523374	1077.981081074172	1442.854159812412	661.685468424174	1058.499037425168	1496.714868019128	481.095841896659	1103.668587323901	939.507162163342	623.415727553601	1087.358588247672	965.056471328239	348.109139035204	1149.452712629022	743.346556400252	576.468439543109	1077.135500899353	630.602598698710	639.669519849096	1146.191611911422	583.954109133086	549.990224579164	1149.123120488334	496.825636221968	552.712585759408	1128.090430921005	754.249186943525	355.934118034642	1040.549042323445	641.715810299442	284.013417942984	1132.078369415538	558.481128124325	332.681500905021	1129.500438127094	476.906051524556	327.286124802180	1069.458799883908	417.260851220906	322.253339337691	937.777809130766	357.700827617006	269.660419518205	942.413114792301	228.424879786855	324.344260079129	1125.140375960225	405.647095289673	560.174227588589	1065.437268517003	298.846283365062	629.784538764262	1098.529548762885	206.704692993986	558.251533214230	962.349301258141	42.169342458837	549.245746615572	1137.258533605519	97.986865331254	554.256583148011	1058.191295575726	36.626924016251	607.130843257028	1260.338507629283	48.740914477551	558.554638459605	766.456038478510	131.688763458066	358.696298393492	830.718835480900	97.747161679756	279.307786853994	930.241147003269	126.471390024334	301.246190984755	1027.555210709553	38.168214643944	274.112736028863	1163.566555824747	1100.491557927493	189.094926405783	1409.444967833973	1011.421288109096	196.471543843608	967.559875815491	1119.922114917112	795.357669987281	1021.535536297827	863.320446994523	800.395082358378	
93	11.476285714286	875.109883085576	1010.870770956288	514.081677956999	1075.976977944326	1430.011403968751	331.642459980058	1165.202438986301	1359.832267570041	499.255527157176	1078.718632416775	1442.483467561182	665.739582346774	1056.226554011100	1496.751582826674	485.452600880100	1106.365109513049	939.604347430624	626.990647727176	1086.874427187383	965.283327097360	352.173332823346	1151.407316089641	742.791400143818	579.618234817142	1078.913541342211	629.937699333863	642.758663186336	1147.350165046010	583.319992624939	552.686480813863	1149.891750269985	495.784517730123	555.063412371649	1135.112409145438	758.065234391659	360.190274443052	1053.112926805487	643.143320336793	287.022703396131	1147.698770473115	562.219532773487	335.825305701067	1146.093998109035	478.361527531023	328.843094717535	1082.102919888258	419.338555128330	324.183852066302	946.835568856784	368.911317892964	272.201860221848	942.998864409739	240.011993486405	326.498307439058	1124.650905021731	404.706439226742	562.046438290800	1063.806265129421	298.227514906306	631.276250095356	1095.574843908401	206.143076744882	559.077782392514	957.734154959918	42.189433882735	549.390484022121	1132.928003325018	97.923018888609	554.456959533082	1053.599179876787	36.602966326074	607.234506637002	1255.792558305566	48.381204028657	558.510826123951	761.479065774298	157.182548352256	361.166260902490	822.683313032288	118.073885875853	281.788694667220	923.976935174797	138.787073862395	303.304040668399	1013.240804009508	42.444243246377	276.391247771702	1144.773057807782	1094.392522086040	195.660143429986	1381.272073112238	983.783897411792	201.144873575061	983.228030035412	1114.919224037570	802.197089924231	1052.928329995463	862.667268309823	808.166286035689	
94	11.499071428571	876.086124823872	1009.631953726115	519.724466267725	1071.221629738318	1430.053191217837	335.001595510392	1163.487532086022	1360.531260157294	501.284516210548	1078.819588499241	1442.032076113681	669.441457654382	1053.681558500757	1496.673143502364	489.470838039887	1108.796428819328	939.708878460422	630.424306660789	1086.758012408813	965.319566628954	356.105830023726	1153.447153120548	742.252044443810	582.774240383371	1080.766725276821	629.152217940757	645.613174656719	1148.847851128622	582.614508071993	555.285255067753	1151.115245059633	494.640837195907	557.315735966947	1142.152371824062	761.707702410813	364.751659226173	1065.824599773836	644.680189786960	289.970374220562	1163.099329700291	566.102540967470	339.312471364645	1162.396381418315	480.052516955058	330.742210525363	1094.506032171586	421.626933465771	326.193505780053	955.806116960663	380.729766500516	274.988016357372	943.250286915287	252.456320597331	328.917169274834	1124.433467958042	403.717812713242	563.825954289414	1062.251843696911	297.707588081281	632.706770794679	1092.669751200476	205.618673167840	559.909877257026	953.116844663089	42.234699735051	549.546221548123	1128.606795669048	97.863360901978	554.641948039387	1049.006402550111	36.586654972216	607.334095699756	1251.238672758416	48.034886725598	558.447094655815	756.504501136857	183.967355497002	364.250140495790	814.324848908796	140.025778647454	284.656333418425	917.143212370231	152.446566562453	305.643071612333	997.954580614547	48.197401126429	278.461601223464	1125.484415395684	1088.871706049585	202.226858356935	1349.601794096534	956.293633343394	205.926778302403	999.345251567109	1110.029522808013	807.929531631602	1085.923907375726	863.562063253221	814.172960847547	
